<?xml version="1.0" encoding="UTF-8" standalone="no"?>
<!-- Created with Inkscape (http://www.inkscape.org/) -->
<svg xmlns:svg="http://www.w3.org/2000/svg" xmlns="http://www.w3.org/2000/svg" version="1.0" width="642.69531" height="212.83148" id="Logo_dpa_neu" xml:space="preserve"><defs id="defs5"/><path d="M 161.85425,67.43589 L 136.87397,67.43589 L 136.87397,201.83148 L 161.85425,201.83148 L 161.85425,138.04641 L 162.12863,138.04641 L 162.67742,138.83354 L 163.7756,139.88366 L 164.32439,140.40903 L 165.42259,141.45852 L 166.24638,141.72092 L 166.79517,142.24567 L 168.16776,143.03341 L 169.54033,143.82114 L 171.18732,144.60828 L 172.55989,145.39603 L 175.85384,146.44615 L 177.50145,146.70852 L 179.14842,147.23327 L 182.44238,147.75864 L 188.2071,147.75864 L 192.59924,147.23327 L 194.79563,146.97089 L 196.99139,146.44615 L 198.91274,145.6584 L 200.83476,145.13366 L 202.7561,144.34591 L 204.67746,143.55817 L 207.97142,141.45852 L 209.61903,140.14603 L 210.99098,139.09653 L 212.63859,137.78342 L 214.01054,136.47093 L 215.38375,135.15844 L 216.48132,133.58417 L 217.57951,132.00869 L 218.6777,130.43383 L 219.77527,128.85895 L 220.87345,127.0217 L 221.69725,125.44683 L 222.52107,123.60897 L 223.06984,121.77173 L 223.61862,120.19685 L 224.16804,118.35959 L 224.71683,116.25935 L 225.26561,112.58486 L 225.54062,110.74701 L 225.81501,108.64677 L 225.81501,104.70928 L 225.54062,102.87204 L 225.54062,100.77241 L 224.99121,98.935159 L 224.71683,97.097305 L 224.16804,94.997681 L 223.61862,93.159818 L 223.06984,91.322575 L 222.52107,89.485323 L 221.69725,87.647451 L 220.87345,86.07319 L 219.77527,84.235328 L 218.6777,82.660466 L 217.8539,81.085595 L 216.48132,79.510715 L 215.38375,77.935234 L 214.01054,76.623354 L 212.63859,75.047864 L 210.99098,73.998357 L 209.61903,72.685867 L 207.97142,71.373377 L 206.32446,70.323251 L 204.40308,69.535524 L 202.7561,68.486017 L 200.83476,67.698272 L 198.91274,66.911128 L 196.717,66.385773 L 194.79563,65.861002 L 192.59924,65.598028 L 190.12846,65.335656 L 187.93271,65.073284 L 182.16797,65.073284 L 180.52101,65.335656 L 178.87404,65.598028 L 177.22706,65.861002 L 172.2855,67.43589 L 170.91291,68.223617 L 169.54033,69.010762 L 168.71718,69.273134 L 167.89335,69.798506 L 167.34395,70.060879 L 166.79517,70.585633 L 165.972,71.111005 L 165.42259,71.63575 L 164.8738,71.898131 L 164.32439,72.423495 L 163.7756,72.94824 L 163.22683,73.735984 L 162.67742,74.260747 L 162.12863,74.785492 L 161.85425,74.785492 L 161.85425,67.43589 z M 179.97159,84.497709 L 181.06979,84.760091 L 182.16797,84.760091 L 183.26553,85.022463 L 184.36374,85.022463 L 185.46194,85.285445 L 186.56012,85.810208 L 187.65831,86.07319 L 188.48148,86.597944 L 189.57969,87.122698 L 190.40285,87.647451 L 191.22666,88.172824 L 192.04983,88.697569 L 192.87363,89.485323 L 193.69744,90.010058 L 194.24622,90.797803 L 195.06939,91.584947 L 195.6188,92.372674 L 196.16757,93.159818 L 196.99139,93.947563 L 197.26577,94.997681 L 197.81519,95.784798 L 198.36397,96.834924 L 198.63836,97.622669 L 199.18714,98.672786 L 199.46216,99.459921 L 199.73655,100.51004 L 200.01094,101.55955 L 200.28533,102.60965 L 200.28533,103.39678 L 200.55973,104.44691 L 200.55973,108.3844 L 200.28533,109.4345 L 200.28533,110.48462 L 200.01094,111.27175 L 199.73655,112.32187 L 199.46216,113.37199 L 199.18714,114.15913 L 198.63836,115.20923 L 198.36397,116.25935 L 197.81519,117.04649 L 197.26577,117.83424 L 196.99139,118.88437 L 196.16757,119.67148 L 195.06939,121.24697 L 194.24622,122.0341 L 193.69744,122.82184 L 192.87363,123.3466 L 192.04983,124.13433 L 191.22666,124.6591 L 189.57969,125.70921 L 188.48148,126.23396 L 187.65831,126.75932 L 186.56012,127.0217 L 184.36374,127.54646 L 183.26553,127.80883 L 182.16797,128.07121 L 177.50145,128.07121 L 176.40325,127.80883 L 175.30507,127.54646 L 174.20686,127.28407 L 173.38369,127.0217 L 172.2855,126.75932 L 171.18732,126.23396 L 170.36415,125.70921 L 169.54033,125.18445 L 168.44215,124.6591 L 167.61897,124.13433 L 166.79517,123.3466 L 166.24638,122.82184 L 165.42259,122.0341 L 164.8738,121.24697 L 164.05,120.45923 L 163.50122,119.67148 L 162.95244,118.88437 L 162.40302,117.83424 L 161.85425,117.04649 L 161.57986,116.25935 L 161.03045,115.20923 L 160.75605,114.15913 L 160.48166,113.37199 L 160.20727,112.32187 L 159.93289,111.27175 L 159.65786,110.48462 L 159.38347,109.4345 L 159.38347,103.39678 L 159.65786,102.60965 L 160.20727,100.51004 L 160.48166,99.459921 L 160.75605,98.672786 L 161.03045,97.622669 L 161.57986,96.834924 L 161.85425,95.784798 L 162.40302,94.997681 L 162.95244,93.947563 L 163.50122,93.159818 L 164.05,92.372674 L 164.8738,91.584947 L 165.42259,90.797803 L 166.24638,90.010058 L 166.79517,89.485323 L 167.61897,88.697569 L 168.44215,88.172824 L 169.54033,87.647451 L 170.36415,87.122698 L 171.18732,86.597944 L 172.2855,86.07319 L 173.38369,85.810208 L 174.20686,85.285445 L 175.30507,85.022463 L 176.40325,85.022463 L 177.50145,84.760091 L 178.59901,84.760091 L 179.97159,84.497709 M 323.53055,67.43589 L 298.82467,67.43589 L 298.82467,74.785492 L 297.17707,73.21063 L 296.35389,72.685867 L 295.25571,71.63575 L 293.88313,70.585633 L 292.51054,69.798506 L 290.86357,69.010762 L 289.49098,68.223617 L 287.844,67.43589 L 284.55006,66.385773 L 282.90308,66.123392 L 281.25611,65.598028 L 279.60913,65.335656 L 277.96152,65.335656 L 276.31455,65.073284 L 272.19744,65.073284 L 270.00105,65.335656 L 267.80465,65.598028 L 265.60891,65.861002 L 263.68753,66.385773 L 261.49115,67.1735 L 259.56979,67.698272 L 257.64779,68.486017 L 256.00082,69.535524 L 254.07945,70.323251 L 252.43247,71.373377 L 250.78551,72.685867 L 249.41292,73.735984 L 248.04033,75.047864 L 246.39336,76.360372 L 245.29517,77.935234 L 243.92258,79.248342 L 242.8244,80.822595 L 241.7262,82.398085 L 240.62864,83.972956 L 239.80483,85.810208 L 238.98167,87.385689 L 238.15785,89.22234 L 237.33469,91.060176 L 236.78527,92.635065 L 236.23649,94.735281 L 235.68771,96.572552 L 235.41268,98.409795 L 235.1383,100.24766 L 234.86391,102.08491 L 234.58953,104.18453 L 234.58953,108.12201 L 234.86391,109.95927 L 235.1383,112.0595 L 235.41268,113.89735 L 235.68771,115.734 L 236.23649,117.83424 L 236.78527,119.67148 L 237.33469,121.50934 L 238.15785,123.3466 L 238.98167,125.18445 L 239.80483,126.75932 L 240.62864,128.59657 L 241.7262,130.17144 L 242.8244,131.74632 L 243.92258,133.32119 L 245.29517,134.89606 L 246.39336,136.20856 L 247.76594,137.78342 L 249.41292,139.09653 L 250.78551,140.14603 L 252.43247,141.45852 L 254.07945,142.50865 L 256.00082,143.29579 L 257.92282,144.34591 L 259.56979,145.13366 L 261.76553,145.92077 L 263.68753,146.44615 L 265.8833,146.97089 L 268.07968,147.49565 L 270.27544,147.75864 L 278.23592,147.75864 L 283.17748,146.97089 L 288.11903,145.39603 L 289.49098,144.60828 L 291.1386,144.08354 L 292.51054,143.29579 L 293.88313,142.24567 L 294.43254,141.9833 L 295.25571,141.45852 L 295.80512,140.93379 L 296.90332,139.88366 L 297.4521,139.3589 L 298.55029,138.30879 L 298.82467,138.30879 L 298.82467,145.39603 L 323.53055,145.39603 L 323.53055,67.43589 z M 280.4323,128.3342 L 279.3341,128.3342 L 278.23592,128.07121 L 277.13836,128.07121 L 276.04015,127.80883 L 274.94197,127.54646 L 273.84441,127.0217 L 273.02061,126.75932 L 271.92241,126.23396 L 271.09924,125.70921 L 270.00105,125.18445 L 269.17788,124.6591 L 268.35407,124.13433 L 267.53027,123.3466 L 266.98149,122.82184 L 266.15768,122.0341 L 265.33451,121.24697 L 264.78509,120.45923 L 264.23633,119.67148 L 263.68753,118.88437 L 263.13812,117.83424 L 262.58935,117.04649 L 262.04057,115.99698 L 261.76553,115.20923 L 261.49115,114.15913 L 260.94237,113.37199 L 260.3936,111.27175 L 260.3936,110.22164 L 260.11856,109.4345 L 260.11856,108.3844 L 259.84419,107.33428 L 259.84419,105.49702 L 260.11856,104.44691 L 260.11856,103.39678 L 260.3936,102.34728 L 260.3936,101.55955 L 260.94237,99.459921 L 261.49115,98.672786 L 262.04057,96.572552 L 262.58935,95.784798 L 263.13812,94.997681 L 263.68753,93.947563 L 264.23633,93.159818 L 264.78509,92.372674 L 265.33451,91.584947 L 266.15768,90.797803 L 266.98149,90.010058 L 267.53027,89.485323 L 268.35407,88.697569 L 269.17788,88.172824 L 270.00105,87.647451 L 271.09924,87.122698 L 271.92241,86.597944 L 273.02061,86.07319 L 273.84441,85.810208 L 274.94197,85.547818 L 276.04015,85.285445 L 277.13836,85.022463 L 278.23592,84.760091 L 282.90308,84.760091 L 284.00129,85.022463 L 285.09883,85.285445 L 286.19703,85.547818 L 287.29523,85.810208 L 288.11903,86.07319 L 290.31477,87.122698 L 291.1386,87.647451 L 291.96176,88.172824 L 292.78557,88.697569 L 293.60872,89.485323 L 294.43254,90.010058 L 294.9813,90.797803 L 295.80512,91.584947 L 296.35389,92.372674 L 297.17707,93.159818 L 297.72649,93.947563 L 298.27527,94.997681 L 298.82467,95.784798 L 299.09907,96.572552 L 299.64785,97.622669 L 299.92288,98.672786 L 300.19726,99.459921 L 300.47165,100.51004 L 300.74605,101.55955 L 301.02043,102.34728 L 301.29482,103.39678 L 301.29482,109.4345 L 301.02043,110.22164 L 300.74605,111.27175 L 300.47165,112.32187 L 300.19726,113.37199 L 299.92288,114.15913 L 299.64785,115.20923 L 299.09907,115.99698 L 298.82467,117.04649 L 298.27527,117.83424 L 297.72649,118.88437 L 297.17707,119.67148 L 296.35389,120.45923 L 295.80512,121.24697 L 294.9813,122.0341 L 294.43254,122.82184 L 293.60872,123.3466 L 292.78557,124.13433 L 291.96176,124.6591 L 290.31477,125.70921 L 288.11903,126.75932 L 287.29523,127.0217 L 286.19703,127.54646 L 285.09883,127.80883 L 284.00129,128.07121 L 282.90308,128.07121 L 281.8049,128.3342 L 280.4323,128.3342 M 97.17789,145.39603 L 122.15815,145.39603 L 122.15815,11 L 97.17789,11 L 97.17789,74.785492 L 96.902871,74.785492 L 96.354081,73.998357 L 95.805303,73.473002 L 95.255888,72.94824 L 94.15832,71.898131 L 93.334523,71.373377 L 92.785119,71.111005 L 92.236329,70.585633 L 90.863742,69.798506 L 89.216771,69.010762 L 87.844183,68.223617 L 86.197212,67.43589 L 84.824636,66.911128 L 83.177659,66.385773 L 81.530688,66.123392 L 79.883704,65.598028 L 78.236733,65.335656 L 76.58976,65.335656 L 74.667764,65.073284 L 70.824395,65.073284 L 68.628653,65.335656 L 66.157866,65.598028 L 64.236503,65.861002 L 62.040113,66.385773 L 60.118751,67.1735 L 58.197387,67.698272 L 56.275388,68.486017 L 54.354024,69.535524 L 52.707051,70.323251 L 51.060077,71.373377 L 49.413104,72.685867 L 48.040518,73.735984 L 46.393545,75.047864 L 45.020961,76.360372 L 43.648376,77.935234 L 42.550182,79.248342 L 41.451987,80.822595 L 40.079403,82.398085 L 39.256235,83.972956 L 38.15804,85.810208 L 37.334234,87.385689 L 36.511066,89.22234 L 35.962287,91.060176 L 35.412872,92.635065 L 34.864092,94.735281 L 34.314675,96.572552 L 33.765897,98.409795 L 33.491507,100.24766 L 33.491507,102.08491 L 33.217118,104.18453 L 33.217118,108.12201 L 33.491507,109.95927 L 33.491507,112.0595 L 33.765897,113.89735 L 34.314675,115.734 L 34.864092,117.83424 L 35.412872,119.67148 L 35.962287,121.50934 L 36.511066,123.3466 L 37.334234,125.18445 L 38.15804,126.75932 L 39.256235,128.59657 L 40.079403,130.17144 L 41.177597,131.74632 L 42.550182,133.32119 L 43.648376,134.89606 L 45.020961,136.20856 L 46.393545,137.78342 L 48.040518,139.09653 L 49.413104,140.14603 L 51.060077,141.45852 L 52.707051,142.50865 L 54.628413,143.29579 L 56.275388,144.34591 L 58.197387,145.13366 L 60.118751,145.92077 L 62.315141,146.44615 L 64.236503,146.97089 L 66.432891,147.49565 L 68.628653,147.75864 L 76.864147,147.75864 L 80.158104,147.23327 L 81.805075,146.97089 L 86.74599,145.39603 L 88.118566,144.60828 L 89.491154,143.82114 L 90.314963,143.55817 L 91.138773,143.29579 L 91.687552,142.77104 L 92.236329,142.24567 L 93.060139,141.72092 L 93.608917,141.19615 L 94.15832,140.93379 L 95.255888,139.88366 L 95.805303,139.3589 L 96.354081,138.57116 L 96.902871,138.04641 L 97.17789,138.04641 L 97.17789,145.39603 z M 79.059905,128.3342 L 77.961705,128.3342 L 76.864147,128.07121 L 75.491563,128.07121 L 74.667764,127.80883 L 73.570205,127.54646 L 72.472006,127.0217 L 71.373808,126.75932 L 70.550009,126.23396 L 69.45245,125.70921 L 68.628653,125.18445 L 67.80484,124.6591 L 66.981672,124.13433 L 66.157866,123.3466 L 65.334697,122.82184 L 64.785918,122.0341 L 63.962114,121.24697 L 63.412698,120.45923 L 62.863919,119.67148 L 62.040113,118.88437 L 61.765723,117.83424 L 61.216944,117.04649 L 60.668166,115.99698 L 60.393141,115.20923 L 59.844362,114.15913 L 59.569973,113.37199 L 59.295583,112.32187 L 58.746167,110.22164 L 58.746167,109.4345 L 58.471776,108.3844 L 58.471776,104.44691 L 58.746167,103.39678 L 58.746167,102.34728 L 59.020555,101.55955 L 59.295583,100.51004 L 59.569973,99.459921 L 59.844362,98.672786 L 60.393141,97.622669 L 60.668166,96.572552 L 61.216944,95.784798 L 61.765723,94.997681 L 62.040113,93.947563 L 62.863919,93.159818 L 63.412698,92.372674 L 63.962114,91.584947 L 64.785918,90.797803 L 65.334697,90.010058 L 66.157866,89.485323 L 66.981672,88.697569 L 67.80484,88.172824 L 68.628653,87.647451 L 69.45245,87.122698 L 70.550009,86.597944 L 71.373808,86.07319 L 72.472006,85.810208 L 73.570205,85.547818 L 74.667764,85.285445 L 75.491563,85.022463 L 76.864147,84.760091 L 81.530688,84.760091 L 82.628246,85.022463 L 83.726431,85.285445 L 84.824636,85.547818 L 85.648422,85.810208 L 86.74599,86.07319 L 87.844183,86.597944 L 88.667992,87.122698 L 89.491154,87.647451 L 90.314963,88.172824 L 91.138773,88.697569 L 91.961934,89.485323 L 92.785119,90.010058 L 93.608917,90.797803 L 94.15832,91.584947 L 94.981494,92.372674 L 95.530283,93.159818 L 96.079697,93.947563 L 96.628465,94.997681 L 97.17789,95.784798 L 97.452274,96.572552 L 98.001052,97.622669 L 98.275446,98.672786 L 98.549842,99.459921 L 98.824861,100.51004 L 99.099245,101.55955 L 99.373639,102.34728 L 99.648035,103.39678 L 99.648035,109.4345 L 99.373639,110.22164 L 99.099245,111.27175 L 98.824861,112.32187 L 98.549842,113.37199 L 98.275446,114.15913 L 98.001052,115.20923 L 97.452274,115.99698 L 97.17789,117.04649 L 96.628465,117.83424 L 96.079697,118.88437 L 95.530283,119.67148 L 94.981494,120.45923 L 94.15832,121.24697 L 93.608917,122.0341 L 92.785119,122.82184 L 91.961934,123.3466 L 91.138773,124.13433 L 90.314963,124.6591 L 89.491154,125.18445 L 88.667992,125.70921 L 87.844183,126.23396 L 86.74599,126.75932 L 85.648422,127.0217 L 84.824636,127.54646 L 83.726431,127.80883 L 82.628246,128.07121 L 81.530688,128.07121 L 80.432489,128.3342 L 79.059905,128.3342" id="dpa" style="fill:#000000;fill-opacity:1;fill-rule:evenodd;stroke:none"/><g transform="matrix(1.4216164,0,0,-1.4216164,-73.883061,838.73829)" id="dots"><path d="M 394.56559,247.53207 A 21.213203,21.213203 0 1 1 352.13918,247.53207 A 21.213203,21.213203 0 1 1 394.56559,247.53207 z" transform="matrix(0.8,0,0,-0.8,30.357831,714.06684)" id="dot_l" style="opacity:1;fill:#94c472;fill-opacity:1;fill-rule:nonzero;stroke:none"/><path d="M 394.56559,247.53207 C 394.56559,259.24176 385.06207,268.74528 373.35239,268.74528 C 361.6427,268.74528 352.13918,259.24176 352.13918,247.53207 C 352.13918,235.82239 361.6427,226.31887 373.35239,226.31887 C 385.06207,226.31887 394.56559,235.82239 394.56559,247.53207 z" transform="matrix(0.8,0,0,-0.8,98.874988,714.06684)" id="dot_m" style="fill:#94c472;fill-opacity:1;fill-rule:nonzero;stroke:none"/><path d="M 394.56559,247.53207 C 394.56559,259.24176 385.06207,268.74528 373.35239,268.74528 C 361.6427,268.74528 352.13918,259.24176 352.13918,247.53207 C 352.13918,235.82239 361.6427,226.31887 373.35239,226.31887 C 385.06207,226.31887 394.56559,235.82239 394.56559,247.53207 z" transform="matrix(0.8,0,0,-0.8,165.04067,714.06684)" id="dot_r" style="fill:#94c472;fill-opacity:1;fill-rule:nonzero;stroke:none"/></g></svg>